<svg id="Layer_1" data-name="Layer 1" xmlns="http://www.w3.org/2000/svg" viewBox="0 0 139 31.75"><defs><style>.cls-1{fill:#f70059;fill-rule:evenodd;}.cls-2{fill:#fff;}</style></defs><path class="cls-1" d="M17.93,18.5c1.74-1.5,2.62-2.94,2.62-4.3a2.67,2.67,0,0,0-2.62-2.86,3.23,3.23,0,0,0-1.57.28,2.37,2.37,0,0,0-.73.52l-.67.68-.66-.68a2.52,2.52,0,0,0-.73-.51A3.34,3.34,0,0,0,12,11.34,2.65,2.65,0,0,0,9.37,14.2c0,1.36.88,2.8,2.62,4.3a17.29,17.29,0,0,0,3,2A17.29,17.29,0,0,0,17.93,18.5Z"/><path class="cls-2" d="M55.91,9.85A6.09,6.09,0,1,0,62,15.93,6.09,6.09,0,0,0,55.91,9.85Zm0,9.4a3.32,3.32,0,1,1,3.32-3.32A3.31,3.31,0,0,1,55.91,19.25Z"/><path class="cls-2" d="M74.18,14.86v5.78a1.39,1.39,0,0,1-2.77,0V14.86a2.25,2.25,0,0,0-4.49,0v5.78a1.39,1.39,0,0,1-2.77,0V11.23a1.39,1.39,0,0,1,2.37-1,1.55,1.55,0,0,1,.19.24,5,5,0,0,1,4.91,0A5,5,0,0,1,74.18,14.86Z"/><path class="cls-2" d="M97.93,11.34a1.38,1.38,0,0,1-1.38,1.38,1.66,1.66,0,0,1-.32,0,2.1,2.1,0,0,0-.56-.07,2.24,2.24,0,0,0-2.25,2.24v5.78a1.38,1.38,0,0,1-2.76,0V11.23a1.38,1.38,0,0,1,2.36-1,1.12,1.12,0,0,1,.19.24,5,5,0,0,1,2.46-.64,4.8,4.8,0,0,1,1.14.13L97,10A1.38,1.38,0,0,1,97.93,11.34Z"/><path class="cls-2" d="M46.29,6a1.4,1.4,0,0,0-1.38,1.42v3.46A6.09,6.09,0,1,0,45,21a1.39,1.39,0,0,0,1.33,1,1.41,1.41,0,0,0,1.39-1.42V7.37A1.41,1.41,0,0,0,46.29,6Zm-4.7,13.3a3.32,3.32,0,1,1,3.32-3.32A3.32,3.32,0,0,1,41.59,19.25Z"/><path class="cls-2" d="M106.17,9.85a6.1,6.1,0,0,0-3.32,1V7.37a1.38,1.38,0,1,0-2.76,0V20.6A1.4,1.4,0,0,0,101.47,22a1.39,1.39,0,0,0,1.33-1,6.08,6.08,0,1,0,3.37-11.14Zm0,9.4a3.32,3.32,0,1,1,3.32-3.32A3.32,3.32,0,0,1,106.17,19.25Z"/><path class="cls-2" d="M82.42,9.85a6.09,6.09,0,1,0,6.08,6.08A6.09,6.09,0,0,0,82.42,9.85Zm0,9.4a3.32,3.32,0,1,1,3.31-3.32A3.31,3.31,0,0,1,82.42,19.25Z"/><path class="cls-2" d="M120.5,9.85a6.09,6.09,0,1,0,6.08,6.08A6.09,6.09,0,0,0,120.5,9.85Zm0,9.4a3.32,3.32,0,1,1,3.32-3.32A3.32,3.32,0,0,1,120.5,19.25Z"/><path class="cls-2" d="M138.68,19.74a1.38,1.38,0,1,1-2.13,1.76l-2.81-3.4-2.8,3.4a1.39,1.39,0,0,1-2.14-1.76L132,15.92l-3.15-3.81a1.39,1.39,0,1,1,2.14-1.76l2.8,3.4,2.81-3.4a1.38,1.38,0,1,1,2.13,1.76l-3.14,3.81Z"/><path class="cls-2" d="M29.92,2.35V29.4a1.44,1.44,0,0,1-.42,1,1.41,1.41,0,0,1-1,.42H1.43A1.43,1.43,0,0,1,0,29.4v-27A1.43,1.43,0,0,1,1.43.91H15a1.44,1.44,0,0,1,1.43,1.44V6.54a1.43,1.43,0,0,1-.42,1A1.41,1.41,0,0,1,15,8a1.43,1.43,0,0,1-1.43-1.43V3.78H2.87V28H27.06V3.78H23.12a1.41,1.41,0,0,1-1-.42,1.44,1.44,0,0,1,1-2.45h5.37A1.44,1.44,0,0,1,29.92,2.35Z"/></svg>